<svg xmlns="http://www.w3.org/2000/svg" xmlns:xlink="http://www.w3.org/1999/xlink" width="150" height="100" viewBox="0 0 150 100">
    <defs>
        <path id="a" d="M5.128 0h139.744c1.783 0 2.43.186 3.082.534.652.349 1.163.86 1.512 1.512.348.652.534 1.299.534 3.082v89.744c0 1.783-.186 2.43-.534 3.082a3.635 3.635 0 0 1-1.512 1.512c-.652.348-1.299.534-3.082.534H5.128c-1.783 0-2.43-.186-3.082-.534a3.635 3.635 0 0 1-1.512-1.512C.186 97.302 0 96.655 0 94.872V5.128c0-1.783.186-2.43.534-3.082A3.635 3.635 0 0 1 2.046.534C2.698.186 3.345 0 5.128 0z"/>
        <mask id="b" width="150" height="100" x="0" y="0" fill="#fff">
            <use xlink:href="#a"/>
        </mask>
    </defs>
    <g fill="none" fill-rule="evenodd">
        <use stroke="#EBEFF4" stroke-dasharray="2,2" stroke-width="4" mask="url(#b)" xlink:href="#a"/>
        <path fill="#FFF" d="M77.243 51.485l3.242-3.242L76.243 44 72 48.243l3.243 3.242v4.758h2v-4.758zm0-3.657l1.828 1.829-1.828 1.828v-3.657zm-2 3.657l-1.829-1.828 1.829-1.829v3.657zm-9.37-7.387C67.6 39.931 71.707 37 76.5 37c5.843 0 10.668 4.358 11.403 10H88a8 8 0 1 1 0 16H64v-.013a9.5 9.5 0 1 1 1.872-18.889z"/>
    </g>
</svg>
